<?xml version="1.0" standalone="no"?>
<!DOCTYPE svg PUBLIC "-//W3C//DTD SVG 20010904//EN"
 "http://www.w3.org/TR/2001/REC-SVG-20010904/DTD/svg10.dtd">
<svg version="1.0" xmlns="http://www.w3.org/2000/svg"
 width="500.000000pt" height="500.000000pt" viewBox="0 0 500.000000 500.000000"
 preserveAspectRatio="xMidYMid meet">
<metadata>
Created by potrace 1.14, written by Peter Selinger 2001-2017
</metadata>
<g transform="translate(0.000000,500.000000) scale(0.100000,-0.100000)"
fill="#000000" stroke="none">
<path d="M2407 4884 c-1 -1 -49 -5 -105 -8 -57 -3 -108 -9 -113 -12 -5 -3 -34
-7 -65 -9 -30 -3 -58 -6 -62 -9 -4 -2 -27 -7 -52 -11 -25 -4 -48 -9 -52 -12
-5 -2 -21 -7 -36 -10 -36 -7 -44 -9 -62 -16 -8 -4 -26 -8 -40 -11 -24 -4 -158
-49 -190 -63 -8 -3 -17 -7 -20 -8 -3 -1 -18 -7 -35 -14 -16 -7 -34 -14 -40
-15 -5 -1 -21 -9 -35 -18 -14 -9 -32 -18 -40 -20 -8 -2 -17 -5 -20 -8 -3 -3
-39 -22 -80 -44 -41 -21 -82 -45 -91 -52 -9 -8 -19 -11 -22 -7 -4 3 -7 1 -7
-5 0 -6 -9 -14 -20 -17 -11 -3 -26 -12 -32 -18 -7 -7 -32 -25 -56 -40 -23 -15
-50 -34 -60 -42 -9 -7 -51 -41 -93 -74 -41 -33 -95 -79 -119 -103 -24 -24 -48
-42 -54 -40 -6 2 -8 1 -4 -3 5 -6 -30 -48 -123 -145 -44 -47 -254 -340 -243
-340 2 0 -7 -18 -21 -40 -14 -22 -25 -42 -25 -46 0 -3 -8 -18 -18 -32 -23 -33
-154 -344 -157 -372 0 -3 -4 -11 -9 -18 -4 -7 -5 -16 -2 -19 3 -3 -1 -21 -9
-39 -8 -19 -12 -34 -10 -34 3 0 0 -11 -5 -25 -5 -14 -12 -36 -14 -48 -3 -12
-8 -33 -11 -47 -3 -14 -8 -41 -11 -60 -2 -19 -8 -48 -11 -65 -9 -45 -12 -62
-19 -150 -11 -141 -6 -495 8 -521 2 -5 5 -25 7 -44 10 -125 103 -459 167 -598
13 -29 24 -57 24 -62 0 -12 20 -49 37 -67 6 -7 15 -23 19 -36 9 -30 91 -173
128 -224 17 -23 50 -68 73 -100 23 -32 50 -67 60 -78 10 -11 31 -36 46 -55 31
-38 166 -177 219 -225 35 -31 75 -64 143 -115 22 -17 47 -36 55 -43 9 -7 36
-25 60 -41 25 -16 64 -42 87 -58 23 -15 45 -28 50 -28 4 0 27 -13 51 -29 23
-16 65 -37 92 -47 28 -10 50 -22 50 -26 0 -4 4 -8 10 -8 5 0 38 -13 72 -28 55
-26 107 -43 123 -42 3 0 18 -6 34 -14 15 -8 39 -17 52 -20 13 -2 37 -9 52 -15
15 -6 40 -13 55 -16 28 -5 38 -7 112 -26 25 -6 59 -13 75 -15 17 -2 48 -7 70
-10 180 -26 375 -34 520 -20 131 12 160 15 185 21 14 3 43 7 65 10 44 5 130
21 130 25 0 1 7 3 15 5 76 15 282 81 350 112 30 13 66 29 80 35 31 13 39 17
137 69 43 23 90 50 105 60 14 11 31 19 37 19 6 0 11 4 11 9 0 5 14 14 30 21
17 7 30 16 30 20 0 4 12 12 26 18 24 12 128 92 203 157 92 80 266 263 301 315
8 13 23 32 33 42 9 10 17 20 17 23 0 3 20 32 45 64 25 33 51 70 58 83 7 13 24
41 38 63 13 22 33 59 44 82 11 24 24 43 28 43 5 0 5 5 2 10 -3 6 -1 10 5 10 6
0 8 5 5 10 -3 6 -2 10 3 10 9 0 18 19 27 57 2 7 17 41 34 78 17 36 31 70 31
75 0 6 4 18 9 28 6 9 18 42 27 72 18 56 20 61 27 95 3 11 10 40 17 65 7 25 14
53 16 62 2 10 6 26 8 37 8 34 22 133 31 211 2 14 4 25 5 25 4 0 9 156 8 255 0
169 -8 267 -29 380 -6 30 -13 71 -16 90 -3 19 -14 67 -24 105 -11 39 -21 78
-24 88 -2 9 -6 21 -9 25 -3 5 -8 24 -11 42 -3 19 -9 39 -13 45 -4 5 -14 28
-21 50 -43 129 -231 490 -277 530 -6 6 -26 33 -45 60 -67 100 -254 301 -378
405 -29 25 -59 50 -65 55 -35 31 -260 180 -316 209 -98 51 -115 60 -120 61 -3
0 -23 10 -45 22 -38 20 -193 82 -218 87 -7 2 -19 6 -27 9 -67 25 -266 76 -330
83 -19 2 -48 7 -65 11 -16 4 -41 8 -55 9 -14 1 -52 5 -85 9 -52 6 -303 13
-308 9z"/>
</g>
</svg>
